# xmcd CD database file
#
# Track frame offsets:
#	150
#	35490
#	52440
#	71092
#	100347
#	121179
#	142378
#	167672
#	218884
#
# Disc length: 3135 seconds
#
# Revision: 1
# Processed by: cddbd v1.4PL0 Copyright (c) Steve Scherf et al.
# Submitted via: CDex 1.51
#
DISCID=910c3d09
DTITLE=Haciendo Punto en Otro Son - Navidades en su Punto
DYEAR=2003
DGENRE=Salsa
TTITLE0=Tres cantores
TTITLE1=Canta esta trulla conmigo
TTITLE2=La alondra en los bosques
TTITLE3=A Tony con amor
TTITLE4=Nuestra vieja tradicion
TTITLE5=Medley en su punto
TTITLE6=Mi patria, si yo pudiera
TTITLE7=Villancicos en su punto
TTITLE8=De la tierra en que naci
EXTD=YEAR: 2003
EXTT0=
EXTT1=
EXTT2=
EXTT3=
EXTT4=
EXTT5=
EXTT6=
EXTT7=
EXTT8=
PLAYORDER=
